<?xml version="1.0" standalone="no"?>
<!DOCTYPE svg PUBLIC "-//W3C//DTD SVG 20010904//EN"
 "http://www.w3.org/TR/2001/REC-SVG-20010904/DTD/svg10.dtd">
<svg version="1.0" xmlns="http://www.w3.org/2000/svg"
 width="1148.000000pt" height="1148.000000pt" viewBox="0 0 1148.000000 1148.000000"
 preserveAspectRatio="xMidYMid meet">
<metadata>
Created by potrace 1.14, written by Peter Selinger 2001-2017
</metadata>
<g transform="translate(0.000000,1148.000000) scale(0.100000,-0.100000)"
fill="#000000" stroke="none">
<path d="M2130 5740 l0 -5740 3610 0 3611 0 -34 63 c-73 132 -85 155 -132 242
-26 50 -61 114 -76 143 -16 28 -43 78 -60 110 -17 31 -40 72 -51 90 -11 17
-16 32 -11 32 4 0 3 4 -3 8 -6 4 -34 52 -63 107 -30 55 -57 105 -61 110 -4 6
-29 51 -54 100 -26 50 -59 113 -74 140 -15 28 -44 79 -63 115 -42 77 -123 225
-161 295 -15 28 -44 84 -65 125 -21 41 -40 77 -43 80 -3 3 -13 21 -24 40 -10
19 -33 62 -51 95 -18 33 -46 85 -62 115 -32 59 -97 179 -163 300 -22 41 -49
91 -58 110 -9 19 -19 37 -22 40 -4 3 -22 37 -40 75 -19 39 -37 72 -40 75 -3 3
-15 23 -26 45 -12 22 -35 65 -51 95 -17 30 -52 96 -78 145 -26 50 -56 104 -65
120 -10 17 -37 66 -61 110 -23 44 -55 103 -70 130 -15 28 -45 84 -67 125 -46
86 -73 136 -127 235 -21 39 -53 98 -72 133 -18 34 -42 77 -52 95 -9 18 -33 61
-51 97 -19 36 -40 73 -48 83 -9 9 -12 17 -8 17 4 0 -1 12 -12 28 -10 15 -36
61 -57 102 -21 41 -47 87 -57 102 -10 14 -18 33 -18 42 0 9 -4 16 -9 16 -5 0
-14 12 -20 28 -5 15 -26 56 -47 92 -20 36 -57 103 -82 150 -25 47 -61 112 -79
145 -18 33 -41 76 -51 95 -53 100 -106 198 -123 226 l-19 32 122 41 c68 24
129 43 136 43 6 1 12 5 12 10 0 4 3 7 8 6 12 -2 54 15 212 90 148 70 434 239
486 287 6 5 26 21 44 35 184 139 333 283 523 510 44 52 207 284 207 295 0 2
16 29 35 59 40 63 129 239 174 346 18 41 36 84 41 95 12 27 81 234 85 254 2 9
9 36 16 61 7 25 13 50 15 55 17 72 27 114 30 135 3 14 9 44 15 67 5 24 9 46 8
50 -1 5 0 10 1 13 5 14 18 104 26 178 2 23 7 63 10 90 14 126 21 544 10 667
-19 200 -27 279 -31 295 -3 8 -7 33 -10 55 -2 22 -7 51 -10 65 -3 14 -8 41
-11 60 -3 19 -7 43 -10 52 -5 18 -12 49 -20 88 -3 14 -7 33 -10 42 -3 9 -7 27
-9 40 -5 24 -71 237 -85 273 -4 11 -12 31 -18 45 -6 14 -20 48 -31 77 -35 91
-96 215 -166 338 -62 110 -159 263 -175 275 -3 3 -17 21 -30 40 -112 163 -351
411 -530 550 -25 19 -50 40 -57 46 -7 7 -59 43 -115 80 -57 38 -105 71 -108
74 -13 13 -191 110 -201 110 -5 0 -9 5 -9 10 0 6 -4 10 -9 10 -5 0 -57 23
-115 50 -58 28 -109 50 -111 50 -3 0 -24 9 -48 19 -76 35 -309 113 -377 126
-8 2 -15 4 -15 5 0 2 -31 9 -60 15 -11 2 -60 13 -110 24 -126 28 -196 39 -345
56 -30 3 -77 9 -105 12 -27 3 -881 8 -1897 10 l-1848 4 0 -5741z m3715 5368
c17 -3 64 -9 105 -13 41 -4 84 -9 95 -11 18 -3 70 -12 120 -20 11 -1 43 -8 70
-14 28 -6 63 -13 80 -16 16 -3 68 -17 115 -31 47 -14 94 -27 105 -30 11 -3 29
-9 40 -13 11 -5 40 -16 65 -24 25 -8 59 -20 75 -27 17 -7 36 -13 43 -15 25 -5
320 -153 375 -188 31 -20 61 -36 67 -36 5 0 10 -3 10 -7 0 -5 23 -21 50 -38
27 -16 50 -33 50 -37 0 -5 4 -8 10 -8 5 0 18 -6 27 -14 10 -8 59 -47 108 -87
153 -123 312 -290 440 -461 207 -275 355 -587 456 -958 5 -19 11 -44 14 -55 2
-11 10 -54 19 -95 23 -109 23 -111 30 -160 10 -73 27 -228 32 -295 9 -119 2
-516 -10 -610 -4 -27 -9 -70 -12 -95 -4 -37 -20 -142 -39 -245 -5 -32 -26
-119 -32 -135 -3 -8 -8 -24 -10 -35 -18 -98 -119 -369 -190 -510 -26 -49 -51
-100 -57 -112 -6 -13 -14 -23 -18 -23 -5 0 -8 -5 -8 -11 0 -19 -91 -159 -185
-284 -111 -149 -394 -435 -473 -479 -9 -5 -25 -18 -36 -27 -23 -22 -197 -138
-246 -165 -19 -10 -43 -25 -52 -33 -10 -8 -18 -10 -18 -5 0 5 -4 4 -8 -2 -6
-10 -212 -114 -237 -120 -9 -3 -110 -43 -160 -64 -109 -45 -444 -128 -590
-145 -22 -3 -53 -7 -70 -10 -16 -3 -52 -7 -80 -10 -27 -3 -77 -8 -110 -11 -33
-4 -788 -8 -1677 -8 l-1618 -2 0 2903 0 2902 1653 -3 c908 -2 1666 -6 1682 -8z
m415 -6140 c0 -3 17 -37 38 -75 37 -65 89 -160 157 -288 18 -33 44 -80 57
-105 14 -25 47 -85 74 -135 26 -49 59 -111 73 -137 15 -25 41 -75 60 -110 82
-152 94 -174 103 -185 6 -7 7 -13 3 -13 -5 0 -2 -8 6 -17 17 -22 24 -34 95
-170 32 -60 60 -112 65 -118 4 -5 27 -48 52 -95 24 -47 53 -101 64 -120 11
-19 40 -73 65 -120 25 -47 57 -105 70 -130 27 -49 69 -125 144 -265 26 -49 60
-111 74 -137 14 -25 38 -70 54 -100 16 -29 41 -75 56 -103 111 -204 180 -334
180 -341 0 -4 6 -15 14 -23 8 -9 35 -56 61 -106 26 -49 60 -112 74 -140 15
-27 47 -86 71 -130 23 -44 54 -100 68 -125 13 -25 45 -83 70 -130 25 -47 65
-121 89 -165 24 -44 51 -96 61 -115 9 -19 20 -36 25 -38 4 -2 7 -7 7 -11 0 -4
39 -79 86 -167 48 -87 100 -184 116 -214 113 -212 145 -269 157 -284 7 -9 10
-16 6 -16 -4 0 -3 -6 2 -12 6 -7 29 -47 51 -89 l42 -77 -258 -1 c-218 0 -643
-1 -692 0 -8 0 -368 0 -800 0 -432 0 -792 0 -800 0 -8 0 -80 0 -160 0 -80 -1
-152 -1 -160 0 -8 0 -368 0 -800 0 -432 0 -792 0 -800 0 -8 0 -80 0 -160 0
-80 -1 -152 -1 -160 -1 -8 1 -310 0 -670 0 -360 -1 -683 -1 -718 -1 l-62 1 2
2297 3 2297 1630 2 c897 1 1659 5 1695 8 36 4 81 9 100 11 115 11 158 16 185
21 79 13 90 15 94 20 5 5 40 -36 41 -48z"/>
</g>
</svg>
