<?xml version="1.0" standalone="no"?>
<!DOCTYPE svg PUBLIC "-//W3C//DTD SVG 20010904//EN"
 "http://www.w3.org/TR/2001/REC-SVG-20010904/DTD/svg10.dtd">
<svg version="1.0" xmlns="http://www.w3.org/2000/svg"
 width="307.000000pt" height="307.000000pt" viewBox="0 0 307.000000 307.000000"
 preserveAspectRatio="xMidYMid meet">
<metadata>
Created by potrace 1.14, written by Peter Selinger 2001-2017
</metadata>
<g transform="translate(0.000000,307.000000) scale(0.100000,-0.100000)"
fill="#000000" stroke="none">
<path d="M0 1535 l0 -1535 1535 0 1535 0 0 1535 0 1535 -1535 0 -1535 0 0
-1535z m2840 -35 l0 -1290 -1285 0 -1285 0 0 1290 0 1290 1285 0 1285 0 0
-1290z"/>
<path d="M362 1498 l3 -1193 1190 0 1190 0 3 1193 2 1192 -1195 0 -1195 0 2
-1192z m1058 2 l0 -710 -255 0 -255 0 0 710 0 710 255 0 255 0 0 -710z m777
-707 c-2 -2 -130 -2 -284 -1 l-281 3 282 327 281 328 3 -327 c1 -179 1 -328
-1 -330z"/>
</g>
</svg>
